Genre:Crime | Sci-Fi | Thriller
Language:English
IMDb:http://www.imdb.com/title/tt1637688/
Source:DvD9 R5 /MISTERE Thanks!

Format : AVI
Format/Info : Audio Video Interleave
File size : 817 MiB
Duration : 1h 44mn
Overall bit rate : 1 091 Kbps

Video
ID : 0
Format : MPEG-4 Visual
Format profile : Advanced Simple@L5
Format settings, BVOP : Yes
Format settings, QPel : No
Format settings, GMC : No warppoints
Format settings, Matrix : Default (H.263)
Muxing mode : Packed bitstream
Codec ID : XVID
Codec ID/Hint : XviD
Duration : 1h 44mn
Bit rate : 953 Kbps
Width : 720 pixels
Height : 304 pixels
Display aspect ratio : 2.35:1
Frame rate : 25.000 fps
Color space : YUV
Chroma subsampling : 4:2:0
Bit depth : 8 bits
Scan type : Progressive
Bits/(Pixel*Frame) : 0.174
Stream size : 714 MiB (87%)
Writing library : XviD 1.2.1 (UTC 2008-12-04)

Audio
ID : 1
Format : AC-3
Format/Info : Audio Coding 3
Mode extension : CM (complete main)
Codec ID : 2000
Duration : 1h 44mn
Bit rate mode : Constant
Bit rate : 128 Kbps
Channel(s) : 2 channels
Channel positions : Front: L R
Sampling rate : 44.1 KHz
Bit depth : 16 bits
Stream size : 95.9 MiB (12%)
Alignment : Split accross interleaves
Interleave, duration : 40 ms (1.00 video frame)
Interleave, preload duration : 500 ms


Plot:
In a future where people stop aging at 25, but are engineered to live only one more year, having the means to buy your way out of the situation is a shot at immortal youth. Here, Will Salas finds himself accused of murder and on the run with a hostage - a connection that becomes an important part of the way against the system


 
http://img580.imageshack.us/img580/4907/vlcsnap00001h.png
 
http://img828.imageshack.us/img828/77/vlcsnap00002tg.png
 
http://img37.imageshack.us/img37/1830/vlcsnap00003sn.png
 
http://img835.imageshack.us/img835/6751/vlcsnap00006x.png
 
http://img545.imageshack.us/img545/1967/vlcsnap00005wz.png

Greets:
CRYS,IMAGINE,LKRG,FXG,3Li,iLLUMiNATi,FLAWL3SS,TA,iLLUSiON,ViSiON,DTRG SAFCuk009,LU,TheFalcon007,MYSTiC,PrisM,Noir,WBZ,LAP,Rx,Kingdom,SAFCuk009+Fabreezy,HDLiTE,TWiZTED,ETRG.ELEKTRI4KA,MAGNAT,CM8
And to all the other p2p grps past and present




Make sure its a real Feel-Free release @ extratorrent. com

Thanks to all who promotes release Feel-Free !!!